<?xml version="1.0" encoding="utf-8"?>
<!-- Generator: Adobe Illustrator 13.0.0, SVG Export Plug-In . SVG Version: 6.00 Build 14948)  -->
<!DOCTYPE svg PUBLIC "-//W3C//DTD SVG 1.0//EN" "http://www.w3.org/TR/2001/REC-SVG-20010904/DTD/svg10.dtd">
<svg version="1.0" id="svg2" xmlns:svg="http://www.w3.org/2000/svg"
	 xmlns="http://www.w3.org/2000/svg" xmlns:xlink="http://www.w3.org/1999/xlink" x="0px" y="0px" width="388.975px" height="584px"
	 viewBox="-36.57 -96.305 388.975 584" enable-background="new -36.57 -96.305 388.975 584" xml:space="preserve">
<rect x="-36.07" y="-95.805" fill="#FFFFFF" stroke="#000000" width="388" height="583"/>
<g id="g15782_1_" transform="translate(1.0000001,0.9973246)">
	
		<path id="path54_1_" fill="none" stroke="#FF3B05" stroke-width="1.009" stroke-linejoin="round" stroke-dasharray="8.072,8.072" stroke-dashoffset="1" d="
		M98.321,151.582l193.346,205.97"/>
	
		<path id="path56_1_" fill="none" stroke="#FF3B05" stroke-width="1.009" stroke-linejoin="round" stroke-dasharray="8.072,8.072" stroke-dashoffset="1" d="
		M162.77,357.552l79.64-157.354"/>
	<path id="path12_1_" fill="none" stroke="#003399" stroke-width="3" stroke-linejoin="round" d="M162.77,260.319
		c0,12.506,5.771,24.247,15.51,31.582c9.74,7.375,22.285,9.42,33.707,5.572"/>
	<path id="path14_1_" fill="none" stroke="#003399" stroke-width="3" stroke-linejoin="round" d="M211.987,297.473
		c7.097-2.403,12.625-8.177,14.949-15.511c2.287-7.335,1.043-15.392-3.326-21.644"/>
	<path id="path16_1_" fill="none" stroke="#003399" stroke-width="3" stroke-linejoin="round" d="M223.61,260.319
		c-2.685-3.888-7.014-6.172-11.623-6.172c-4.608,0-8.896,2.284-11.623,6.172"/>
	<path id="path30_1_" fill="none" stroke="#000000" stroke-linejoin="round" d="M33.873,357.552L162.77-54.388"/>
	<path id="path32_1_" fill="none" stroke="#000000" stroke-width="0.909" stroke-linejoin="round" d="M162.77-54.388
		l128.896,411.939"/>
	<path id="path34_1_" fill="none" stroke="#000000" stroke-linejoin="round" d="M291.666,357.552H33.873"/>
	<path id="path36_1_" fill="none" stroke="#000000" stroke-linejoin="round" d="M33.873,357.552l208.536-157.354"/>
	<path id="path38_1_" fill="none" stroke="#000000" stroke-linejoin="round" d="M242.408,200.198l-30.423,97.275"/>
	<path id="path40_1_" fill="none" stroke="#000000" stroke-linejoin="round" d="M162.77,260.319h60.84"/>
	<path id="path42_1_" fill="none" stroke="#000000" stroke-linejoin="round" d="M200.364,260.319l11.623,37.154"/>
	<path id="path44_1_" fill="none" stroke="#000000" stroke-linejoin="round" d="M204.813,274.505l18.797-14.187"/>
	<path id="path46_1_" fill="none" stroke="#000000" stroke-linejoin="round" d="M200.364,260.319l11.623,8.777"/>
	<path id="path50_1_" fill="none" stroke="#000000" stroke-linejoin="round" d="M206.496,269.096h5.489"/>
	<path id="path52_1_" fill="none" stroke="#000000" stroke-linejoin="round" d="M162.77,260.319l128.896,97.232"/>
	<path id="path48_1_" fill="none" stroke="#000000" stroke-width="3" stroke-linejoin="round" d="M207.537,265.729l-2.726,8.776"/>
	<path id="path20_1_" fill="none" stroke="#003399" stroke-width="3" stroke-linejoin="round" d="M204.813,274.505
		c1.685,0.563,3.488,0.242,4.931-0.801c1.401-1.081,2.243-2.805,2.243-4.608"/>
	<path id="path18_1_" fill="none" stroke="#003399" stroke-width="3" stroke-linejoin="round" d="M200.364,260.319
		c-1.643,2.363-2.123,5.451-1.241,8.256c0.883,2.806,3.006,5.011,5.69,5.931"/>
	<path id="path24_1_" fill="none" stroke="#003399" stroke-width="3" stroke-linejoin="round" d="M207.537,265.729
		c-0.601,0.201-1.121,0.723-1.321,1.404c-0.201,0.679-0.12,1.403,0.28,1.963"/>
	<path id="path26_1_" fill="none" stroke="#003399" stroke-width="3" stroke-linejoin="round" d="M206.496,269.096
		c0.239,0.32,0.641,0.563,1.041,0.563c0.44,0,0.842-0.242,1.083-0.563"/>
	<path id="path22_1_" fill="none" stroke="#003399" stroke-width="3" stroke-linejoin="round" d="M211.987,269.096
		c0-1.121-0.52-2.205-1.401-2.846c-0.881-0.682-2.004-0.88-3.047-0.521"/>
	<path id="path6_1_" fill="none" stroke="#003399" stroke-width="3" stroke-linejoin="round" d="M162.77-54.388
		C84.294-27.935,22.771,35.992-2.72,117.475c-25.529,81.522-11.902,170.778,36.594,240.077"/>
	<path id="path8_1_" fill="none" stroke="#003399" stroke-width="3" stroke-linejoin="round" d="M33.873,357.552
		c29.979,42.846,77.875,68.216,128.896,68.216c50.98,0,98.916-25.37,128.896-68.216"/>
	<path id="path28_1_" fill="none" stroke="#003399" stroke-width="3" stroke-linejoin="round" d="M291.666,357.552
		c18.516-26.453,23.727-60.561,13.985-91.703c-9.737-31.103-33.266-55.511-63.243-65.651"/>
	<path id="path10_1_" fill="none" stroke="#003399" stroke-width="3" stroke-linejoin="round" d="M242.408,200.198
		c-18.519-6.251-38.799-2.885-54.55,8.978c-15.752,11.903-25.09,30.902-25.09,51.143"/>
</g>
<text transform="matrix(1 0 0 1 72.7341 149.4619)" font-family="'MyriadPro-Regular'" font-size="25.5">a</text>
<text transform="matrix(1 0 0 1 242.7336 149.4619)" font-family="'MyriadPro-Regular'" font-size="25.5">a</text>
<text transform="matrix(1 0 0 1 158.7341 383.4619)" font-family="'MyriadPro-Regular'" font-size="25.5">b</text>
</svg>
